Wyatt.Earp.1994.720p.Bluray.x264.anoXmous

Format                           : MPEG-4
Format profile                   : Base Media
Codec ID                         : isom
File size                        : 1.37 GiB
Duration                         : 3h 10mn
Overall bit rate mode            : Variable
Overall bit rate                 : 1 027 Kbps


Video
ID                               : 1
Format                           : AVC
Format/Info                      : Advanced Video Codec
Format profile                   : High@L4.1
Format settings, CABAC           : Yes
Format settings, ReFrames        : 4 frames
Codec ID                         : avc1
Codec ID/Info                    : Advanced Video Coding
Duration                         : 3h 10mn
Bit rate                         : 956 Kbps
Maximum bit rate                 : 7 903 Kbps
Width                            : 1 280 pixels
Height                           : 528 pixels
Display aspect ratio             : 2.40:1
Frame rate mode                  : Constant
Frame rate                       : 23.976 fps
Color space                      : YUV
Chroma subsampling               : 4:2:0
Bit depth                        : 8 bits
Scan type                        : Progressive
Bits/(Pixel*Frame)               : 0.059
Stream size                      : 1.27 GiB (93%)
Writing library                  : x264 core 120 r2120 0c7dab9


Audio
ID                               : 2
Format                           : AAC
Format/Info                      : Advanced Audio Codec
Format profile                   : LC
Codec ID                         : 40
Duration                         : 3h 10mn
Bit rate mode                    : Variable
Bit rate                         : 67.8 Kbps
Maximum bit rate                 : 95.8 Kbps
Channel(s)                       : 2 channels
Channel positions                : Front: L R
Sampling rate                    : 48.0 KHz 
Compression mode                 : Lossy
Stream size                      : 92.4 MiB (7%)


Menu
00:00:00.000                     : Chapter 01
03:06:23.130                     : Chapter 63

SUB                              :
Complete name       : Wyatt.Earp.1994.720p.Bluray.x264.anoXmous_dan.srt
File size           : 97.9 KiB

Complete name       : Wyatt.Earp.1994.720p.Bluray.x264.anoXmous_dut.srt
File size           : 115 KiB

Complete name       : Wyatt.Earp.1994.720p.Bluray.x264.anoXmous_eng.srt
File size           : 119 KiB

Complete name       : Wyatt.Earp.1994.720p.Bluray.x264.anoXmous_fin.srt
File size           : 115 KiB

Complete name       : Wyatt.Earp.1994.720p.Bluray.x264.anoXmous_fre.srt
File size           : 108 KiB

Complete name       : Wyatt.Earp.1994.720p.Bluray.x264.anoXmous_ger.srt
File size           : 126 KiB

Complete name       : Wyatt.Earp.1994.720p.Bluray.x264.anoXmous_ita.srt
File size           : 115 KiB

Complete name       : Wyatt.Earp.1994.720p.Bluray.x264.anoXmous_nor.srt
File size           : 106 KiB

Complete name       : Wyatt.Earp.1994.720p.Bluray.x264.anoXmous_por.srt
File size           : 114 KiB

Complete name       : Wyatt.Earp.1994.720p.Bluray.x264.anoXmous_spa.srt
File size           : 118 KiB

Complete name       : Wyatt.Earp.1994.720p.Bluray.x264.anoXmous_swe.srt
File size           : 97.5 KiB

              http://www.imdb.com/title/tt0111756/

       +++++++++ This work very fine with PSP and XBOX :) ++++++++++